<svg viewBox="0 0 543 543" xmlns="http://www.w3.org/2000/svg" version="1.1"><path d="m221 136h16v16h-16z" fill="#468232"></path><path d="m238 136h16v16h-16z" fill="#468232"></path><path d="m255 136h16v16h-16z" fill="#468232"></path><path d="m272 136h16v16h-16z" fill="#468232"></path><path d="m289 136h16v16h-16z" fill="#25562e"></path><path d="m204 153h16v16h-16z" fill="#25562e"></path><path d="m221 153h16v16h-16z" fill="#468232"></path><path d="m238 153h16v16h-16z" fill="#468232"></path><path d="m255 153h16v16h-16z" fill="#468232"></path><path d="m272 153h16v16h-16z" fill="#25562e"></path><path d="m289 153h16v16h-16z" fill="#468232"></path><path d="m306 153h16v16h-16z" fill="#19332d"></path><path d="m323 153h16v16h-16z" fill="#19332d"></path><path d="m170 170h16v16h-16z" fill="#468232"></path><path d="m187 170h16v16h-16z" fill="#468232"></path><path d="m204 170h16v16h-16z" fill="#468232"></path><path d="m221 170h16v16h-16z" fill="#468232"></path><path d="m238 170h16v16h-16z" fill="#468232"></path><path d="m255 170h16v16h-16z" fill="#468232"></path><path d="m272 170h16v16h-16z" fill="#468232"></path><path d="m289 170h16v16h-16z" fill="#468232"></path><path d="m306 170h16v16h-16z" fill="#468232"></path><path d="m323 170h16v16h-16z" fill="#25562e"></path><path d="m340 170h16v16h-16z" fill="#19332d"></path><path d="m136 187h16v16h-16z" fill="#19332d"></path><path d="m153 187h16v16h-16z" fill="#25562e"></path><path d="m170 187h16v16h-16z" fill="#468232"></path><path d="m187 187h16v16h-16z" fill="#468232"></path><path d="m204 187h16v16h-16z" fill="#468232"></path><path d="m221 187h16v16h-16z" fill="#468232"></path><path d="m238 187h16v16h-16z" fill="#468232"></path><path d="m255 187h16v16h-16z" fill="#468232"></path><path d="m272 187h16v16h-16z" fill="#468232"></path><path d="m289 187h16v16h-16z" fill="#468232"></path><path d="m306 187h16v16h-16z" fill="#468232"></path><path d="m323 187h16v16h-16z" fill="#468232"></path><path d="m340 187h16v16h-16z" fill="#25562e"></path><path d="m357 187h16v16h-16z" fill="#19332d"></path><path d="m374 187h16v16h-16z" fill="#468232"></path><path d="m102 204h16v16h-16z" fill="#19332d"></path><path d="m119 204h16v16h-16z" fill="#468232"></path><path d="m136 204h16v16h-16z" fill="#468232"></path><path d="m153 204h16v16h-16z" fill="#25562e"></path><path d="m170 204h16v16h-16z" fill="#468232"></path><path d="m187 204h16v16h-16z" fill="#468232"></path><path d="m204 204h16v16h-16z" fill="#468232"></path><path d="m221 204h16v16h-16z" fill="#468232"></path><path d="m238 204h16v16h-16z" fill="#468232"></path><path d="m255 204h16v16h-16z" fill="#468232"></path><path d="m272 204h16v16h-16z" fill="#468232"></path><path d="m289 204h16v16h-16z" fill="#468232"></path><path d="m306 204h16v16h-16z" fill="#468232"></path><path d="m323 204h16v16h-16z" fill="#468232"></path><path d="m340 204h16v16h-16z" fill="#468232"></path><path d="m357 204h16v16h-16z" fill="#25562e"></path><path d="m374 204h16v16h-16z" fill="#468232"></path><path d="m391 204h16v16h-16z" fill="#468232"></path><path d="m408 204h16v16h-16z" fill="#25562e"></path><path d="m425 204h16v16h-16z" fill="#25562e"></path><path d="m68 221h16v16h-16z" fill="#19332d"></path><path d="m85 221h16v16h-16z" fill="#25562e"></path><path d="m102 221h16v16h-16z" fill="#468232"></path><path d="m119 221h16v16h-16z" fill="#468232"></path><path d="m136 221h16v16h-16z" fill="#468232"></path><path d="m153 221h16v16h-16z" fill="#468232"></path><path d="m170 221h16v16h-16z" fill="#468232"></path><path d="m187 221h16v16h-16z" fill="#468232"></path><path d="m204 221h16v16h-16z" fill="#468232"></path><path d="m221 221h16v16h-16z" fill="#468232"></path><path d="m238 221h16v16h-16z" fill="#468232"></path><path d="m255 221h16v16h-16z" fill="#468232"></path><path d="m272 221h16v16h-16z" fill="#468232"></path><path d="m289 221h16v16h-16z" fill="#468232"></path><path d="m306 221h16v16h-16z" fill="#468232"></path><path d="m323 221h16v16h-16z" fill="#468232"></path><path d="m340 221h16v16h-16z" fill="#468232"></path><path d="m357 221h16v16h-16z" fill="#468232"></path><path d="m374 221h16v16h-16z" fill="#468232"></path><path d="m391 221h16v16h-16z" fill="#468232"></path><path d="m408 221h16v16h-16z" fill="#468232"></path><path d="m425 221h16v16h-16z" fill="#468232"></path><path d="m442 221h16v16h-16z" fill="#25562e"></path><path d="m459 221h16v16h-16z" fill="#25562e"></path><path d="m34 238h16v16h-16z" fill="#468232"></path><path d="m51 238h16v16h-16z" fill="#468232"></path><path d="m68 238h16v16h-16z" fill="#468232"></path><path d="m85 238h16v16h-16z" fill="#468232"></path><path d="m102 238h16v16h-16z" fill="#468232"></path><path d="m119 238h16v16h-16z" fill="#468232"></path><path d="m136 238h16v16h-16z" fill="#468232"></path><path d="m153 238h16v16h-16z" fill="#468232"></path><path d="m170 238h16v16h-16z" fill="#468232"></path><path d="m187 238h16v16h-16z" fill="#468232"></path><path d="m204 238h16v16h-16z" fill="#468232"></path><path d="m221 238h16v16h-16z" fill="#468232"></path><path d="m238 238h16v16h-16z" fill="#468232"></path><path d="m255 238h16v16h-16z" fill="#468232"></path><path d="m272 238h16v16h-16z" fill="#468232"></path><path d="m289 238h16v16h-16z" fill="#468232"></path><path d="m306 238h16v16h-16z" fill="#468232"></path><path d="m323 238h16v16h-16z" fill="#468232"></path><path d="m340 238h16v16h-16z" fill="#468232"></path><path d="m357 238h16v16h-16z" fill="#468232"></path><path d="m374 238h16v16h-16z" fill="#468232"></path><path d="m391 238h16v16h-16z" fill="#468232"></path><path d="m408 238h16v16h-16z" fill="#468232"></path><path d="m425 238h16v16h-16z" fill="#468232"></path><path d="m442 238h16v16h-16z" fill="#468232"></path><path d="m459 238h16v16h-16z" fill="#468232"></path><path d="m476 238h16v16h-16z" fill="#25562e"></path><path d="m493 238h16v16h-16z" fill="#25562e"></path><path d="m510 238h16v16h-16z" fill="#19332d"></path><path d="m0 255h16v16h-16z" fill="#468232"></path><path d="m17 255h16v16h-16z" fill="#468232"></path><path d="m34 255h16v16h-16z" fill="#468232"></path><path d="m51 255h16v16h-16z" fill="#468232"></path><path d="m68 255h16v16h-16z" fill="#468232"></path><path d="m85 255h16v16h-16z" fill="#468232"></path><path d="m102 255h16v16h-16z" fill="#468232"></path><path d="m119 255h16v16h-16z" fill="#468232"></path><path d="m136 255h16v16h-16z" fill="#468232"></path><path d="m153 255h16v16h-16z" fill="#468232"></path><path d="m170 255h16v16h-16z" fill="#468232"></path><path d="m187 255h16v16h-16z" fill="#468232"></path><path d="m204 255h16v16h-16z" fill="#468232"></path><path d="m221 255h16v16h-16z" fill="#468232"></path><path d="m238 255h16v16h-16z" fill="#468232"></path><path d="m255 255h16v16h-16z" fill="#468232"></path><path d="m272 255h16v16h-16z" fill="#468232"></path><path d="m289 255h16v16h-16z" fill="#468232"></path><path d="m306 255h16v16h-16z" fill="#468232"></path><path d="m323 255h16v16h-16z" fill="#468232"></path><path d="m340 255h16v16h-16z" fill="#468232"></path><path d="m357 255h16v16h-16z" fill="#468232"></path><path d="m374 255h16v16h-16z" fill="#468232"></path><path d="m391 255h16v16h-16z" fill="#468232"></path><path d="m408 255h16v16h-16z" fill="#468232"></path><path d="m425 255h16v16h-16z" fill="#468232"></path><path d="m442 255h16v16h-16z" fill="#468232"></path><path d="m459 255h16v16h-16z" fill="#468232"></path><path d="m476 255h16v16h-16z" fill="#468232"></path><path d="m493 255h16v16h-16z" fill="#468232"></path><path d="m510 255h16v16h-16z" fill="#25562e"></path><path d="m527 255h16v16h-16z" fill="#25562e"></path><path d="m0 272h16v16h-16z" fill="#468232"></path><path d="m17 272h16v16h-16z" fill="#468232"></path><path d="m34 272h16v16h-16z" fill="#468232"></path><path d="m51 272h16v16h-16z" fill="#25562e"></path><path d="m68 272h16v16h-16z" fill="#468232"></path><path d="m85 272h16v16h-16z" fill="#468232"></path><path d="m102 272h16v16h-16z" fill="#468232"></path><path d="m119 272h16v16h-16z" fill="#468232"></path><path d="m136 272h16v16h-16z" fill="#468232"></path><path d="m153 272h16v16h-16z" fill="#468232"></path><path d="m170 272h16v16h-16z" fill="#468232"></path><path d="m187 272h16v16h-16z" fill="#468232"></path><path d="m204 272h16v16h-16z" fill="#468232"></path><path d="m221 272h16v16h-16z" fill="#468232"></path><path d="m238 272h16v16h-16z" fill="#468232"></path><path d="m255 272h16v16h-16z" fill="#468232"></path><path d="m272 272h16v16h-16z" fill="#468232"></path><path d="m289 272h16v16h-16z" fill="#468232"></path><path d="m306 272h16v16h-16z" fill="#468232"></path><path d="m323 272h16v16h-16z" fill="#468232"></path><path d="m340 272h16v16h-16z" fill="#468232"></path><path d="m357 272h16v16h-16z" fill="#468232"></path><path d="m374 272h16v16h-16z" fill="#468232"></path><path d="m391 272h16v16h-16z" fill="#468232"></path><path d="m408 272h16v16h-16z" fill="#468232"></path><path d="m425 272h16v16h-16z" fill="#468232"></path><path d="m442 272h16v16h-16z" fill="#468232"></path><path d="m459 272h16v16h-16z" fill="#468232"></path><path d="m476 272h16v16h-16z" fill="#468232"></path><path d="m493 272h16v16h-16z" fill="#468232"></path><path d="m510 272h16v16h-16z" fill="#25562e"></path><path d="m527 272h16v16h-16z" fill="#19332d"></path><path d="m0 289h16v16h-16z" fill="#19332d"></path><path d="m17 289h16v16h-16z" fill="#19332d"></path><path d="m34 289h16v16h-16z" fill="#19332d"></path><path d="m51 289h16v16h-16z" fill="#19332d"></path><path d="m68 289h16v16h-16z" fill="#468232"></path><path d="m85 289h16v16h-16z" fill="#468232"></path><path d="m102 289h16v16h-16z" fill="#468232"></path><path d="m119 289h16v16h-16z" fill="#468232"></path><path d="m136 289h16v16h-16z" fill="#468232"></path><path d="m153 289h16v16h-16z" fill="#468232"></path><path d="m170 289h16v16h-16z" fill="#468232"></path><path d="m187 289h16v16h-16z" fill="#468232"></path><path d="m204 289h16v16h-16z" fill="#468232"></path><path d="m221 289h16v16h-16z" fill="#468232"></path><path d="m238 289h16v16h-16z" fill="#468232"></path><path d="m255 289h16v16h-16z" fill="#468232"></path><path d="m272 289h16v16h-16z" fill="#468232"></path><path d="m289 289h16v16h-16z" fill="#468232"></path><path d="m306 289h16v16h-16z" fill="#468232"></path><path d="m323 289h16v16h-16z" fill="#468232"></path><path d="m340 289h16v16h-16z" fill="#468232"></path><path d="m357 289h16v16h-16z" fill="#468232"></path><path d="m374 289h16v16h-16z" fill="#468232"></path><path d="m391 289h16v16h-16z" fill="#468232"></path><path d="m408 289h16v16h-16z" fill="#468232"></path><path d="m425 289h16v16h-16z" fill="#25562e"></path><path d="m442 289h16v16h-16z" fill="#25562e"></path><path d="m459 289h16v16h-16z" fill="#468232"></path><path d="m476 289h16v16h-16z" fill="#468232"></path><path d="m493 289h16v16h-16z" fill="#25562e"></path><path d="m510 289h16v16h-16z" fill="#19332d"></path><path d="m527 289h16v16h-16z" fill="#19332d"></path><path d="m17 306h16v16h-16z" fill="#241527"></path><path d="m34 306h16v16h-16z" fill="#4d2b32"></path><path d="m51 306h16v16h-16z" fill="#25562e"></path><path d="m68 306h16v16h-16z" fill="#468232"></path><path d="m85 306h16v16h-16z" fill="#468232"></path><path d="m102 306h16v16h-16z" fill="#468232"></path><path d="m119 306h16v16h-16z" fill="#468232"></path><path d="m136 306h16v16h-16z" fill="#468232"></path><path d="m153 306h16v16h-16z" fill="#468232"></path><path d="m170 306h16v16h-16z" fill="#468232"></path><path d="m187 306h16v16h-16z" fill="#468232"></path><path d="m204 306h16v16h-16z" fill="#468232"></path><path d="m221 306h16v16h-16z" fill="#468232"></path><path d="m238 306h16v16h-16z" fill="#468232"></path><path d="m255 306h16v16h-16z" fill="#468232"></path><path d="m272 306h16v16h-16z" fill="#468232"></path><path d="m289 306h16v16h-16z" fill="#468232"></path><path d="m306 306h16v16h-16z" fill="#468232"></path><path d="m323 306h16v16h-16z" fill="#468232"></path><path d="m340 306h16v16h-16z" fill="#468232"></path><path d="m357 306h16v16h-16z" fill="#468232"></path><path d="m374 306h16v16h-16z" fill="#468232"></path><path d="m391 306h16v16h-16z" fill="#468232"></path><path d="m408 306h16v16h-16z" fill="#468232"></path><path d="m425 306h16v16h-16z" fill="#25562e"></path><path d="m442 306h16v16h-16z" fill="#25562e"></path><path d="m459 306h16v16h-16z" fill="#25562e"></path><path d="m476 306h16v16h-16z" fill="#19332d"></path><path d="m493 306h16v16h-16z" fill="#19332d"></path><path d="m510 306h16v16h-16z" fill="#151d28"></path><path d="m527 306h16v16h-16z" fill="#151d28"></path><path d="m0 323h16v16h-16z" fill="#241527"></path><path d="m17 323h16v16h-16z" fill="#4d2b32"></path><path d="m34 323h16v16h-16z" fill="#4d2b32"></path><path d="m51 323h16v16h-16z" fill="#4d2b32"></path><path d="m68 323h16v16h-16z" fill="#25562e"></path><path d="m85 323h16v16h-16z" fill="#19332d"></path><path d="m102 323h16v16h-16z" fill="#19332d"></path><path d="m119 323h16v16h-16z" fill="#468232"></path><path d="m136 323h16v16h-16z" fill="#468232"></path><path d="m153 323h16v16h-16z" fill="#468232"></path><path d="m170 323h16v16h-16z" fill="#468232"></path><path d="m187 323h16v16h-16z" fill="#468232"></path><path d="m204 323h16v16h-16z" fill="#468232"></path><path d="m221 323h16v16h-16z" fill="#468232"></path><path d="m238 323h16v16h-16z" fill="#468232"></path><path d="m255 323h16v16h-16z" fill="#468232"></path><path d="m272 323h16v16h-16z" fill="#468232"></path><path d="m289 323h16v16h-16z" fill="#468232"></path><path d="m306 323h16v16h-16z" fill="#468232"></path><path d="m323 323h16v16h-16z" fill="#468232"></path><path d="m340 323h16v16h-16z" fill="#468232"></path><path d="m357 323h16v16h-16z" fill="#468232"></path><path d="m374 323h16v16h-16z" fill="#468232"></path><path d="m391 323h16v16h-16z" fill="#468232"></path><path d="m408 323h16v16h-16z" fill="#468232"></path><path d="m425 323h16v16h-16z" fill="#468232"></path><path d="m442 323h16v16h-16z" fill="#151d28"></path><path d="m459 323h16v16h-16z" fill="#19332d"></path><path d="m476 323h16v16h-16z" fill="#19332d"></path><path d="m493 323h16v16h-16z" fill="#151d28"></path><path d="m510 323h16v16h-16z" fill="#341c27"></path><path d="m527 323h16v16h-16z" fill="#241527"></path><path d="m0 340h16v16h-16z" fill="#341c27"></path><path d="m17 340h16v16h-16z" fill="#4d2b32"></path><path d="m34 340h16v16h-16z" fill="#4d2b32"></path><path d="m51 340h16v16h-16z" fill="#4d2b32"></path><path d="m68 340h16v16h-16z" fill="#4d2b32"></path><path d="m85 340h16v16h-16z" fill="#4d2b32"></path><path d="m102 340h16v16h-16z" fill="#4d2b32"></path><path d="m119 340h16v16h-16z" fill="#25562e"></path><path d="m136 340h16v16h-16z" fill="#25562e"></path><path d="m153 340h16v16h-16z" fill="#25562e"></path><path d="m170 340h16v16h-16z" fill="#468232"></path><path d="m187 340h16v16h-16z" fill="#468232"></path><path d="m204 340h16v16h-16z" fill="#468232"></path><path d="m221 340h16v16h-16z" fill="#468232"></path><path d="m238 340h16v16h-16z" fill="#468232"></path><path d="m255 340h16v16h-16z" fill="#468232"></path><path d="m272 340h16v16h-16z" fill="#468232"></path><path d="m289 340h16v16h-16z" fill="#468232"></path><path d="m306 340h16v16h-16z" fill="#468232"></path><path d="m323 340h16v16h-16z" fill="#468232"></path><path d="m340 340h16v16h-16z" fill="#468232"></path><path d="m357 340h16v16h-16z" fill="#468232"></path><path d="m374 340h16v16h-16z" fill="#468232"></path><path d="m391 340h16v16h-16z" fill="#468232"></path><path d="m408 340h16v16h-16z" fill="#202e37"></path><path d="m425 340h16v16h-16z" fill="#19332d"></path><path d="m442 340h16v16h-16z" fill="#151d28"></path><path d="m459 340h16v16h-16z" fill="#151d28"></path><path d="m476 340h16v16h-16z" fill="#151d28"></path><path d="m493 340h16v16h-16z" fill="#341c27"></path><path d="m510 340h16v16h-16z" fill="#341c27"></path><path d="m527 340h16v16h-16z" fill="#241527"></path><path d="m0 357h16v16h-16z" fill="#4d2b32"></path><path d="m17 357h16v16h-16z" fill="#4d2b32"></path><path d="m34 357h16v16h-16z" fill="#4d2b32"></path><path d="m51 357h16v16h-16z" fill="#4d2b32"></path><path d="m68 357h16v16h-16z" fill="#4d2b32"></path><path d="m85 357h16v16h-16z" fill="#4d2b32"></path><path d="m102 357h16v16h-16z" fill="#4d2b32"></path><path d="m119 357h16v16h-16z" fill="#4d2b32"></path><path d="m136 357h16v16h-16z" fill="#4d2b32"></path><path d="m153 357h16v16h-16z" fill="#19332d"></path><path d="m170 357h16v16h-16z" fill="#19332d"></path><path d="m187 357h16v16h-16z" fill="#25562e"></path><path d="m204 357h16v16h-16z" fill="#468232"></path><path d="m221 357h16v16h-16z" fill="#468232"></path><path d="m238 357h16v16h-16z" fill="#25562e"></path><path d="m255 357h16v16h-16z" fill="#468232"></path><path d="m272 357h16v16h-16z" fill="#468232"></path><path d="m289 357h16v16h-16z" fill="#468232"></path><path d="m306 357h16v16h-16z" fill="#468232"></path><path d="m323 357h16v16h-16z" fill="#468232"></path><path d="m340 357h16v16h-16z" fill="#468232"></path><path d="m357 357h16v16h-16z" fill="#25562e"></path><path d="m374 357h16v16h-16z" fill="#202e37"></path><path d="m391 357h16v16h-16z" fill="#19332d"></path><path d="m408 357h16v16h-16z" fill="#151d28"></path><path d="m425 357h16v16h-16z" fill="#151d28"></path><path d="m442 357h16v16h-16z" fill="#341c27"></path><path d="m459 357h16v16h-16z" fill="#341c27"></path><path d="m476 357h16v16h-16z" fill="#341c27"></path><path d="m493 357h16v16h-16z" fill="#341c27"></path><path d="m510 357h16v16h-16z" fill="#241527"></path><path d="m527 357h16v16h-16z" fill="#341c27"></path><path d="m0 374h16v16h-16z" fill="#4d2b32"></path><path d="m17 374h16v16h-16z" fill="#4d2b32"></path><path d="m34 374h16v16h-16z" fill="#341c27"></path><path d="m51 374h16v16h-16z" fill="#341c27"></path><path d="m68 374h16v16h-16z" fill="#341c27"></path><path d="m85 374h16v16h-16z" fill="#4d2b32"></path><path d="m102 374h16v16h-16z" fill="#4d2b32"></path><path d="m119 374h16v16h-16z" fill="#4d2b32"></path><path d="m136 374h16v16h-16z" fill="#4d2b32"></path><path d="m153 374h16v16h-16z" fill="#4d2b32"></path><path d="m170 374h16v16h-16z" fill="#19332d"></path><path d="m187 374h16v16h-16z" fill="#4d2b32"></path><path d="m204 374h16v16h-16z" fill="#19332d"></path><path d="m221 374h16v16h-16z" fill="#25562e"></path><path d="m238 374h16v16h-16z" fill="#25562e"></path><path d="m255 374h16v16h-16z" fill="#468232"></path><path d="m272 374h16v16h-16z" fill="#468232"></path><path d="m289 374h16v16h-16z" fill="#468232"></path><path d="m306 374h16v16h-16z" fill="#25562e"></path><path d="m323 374h16v16h-16z" fill="#25562e"></path><path d="m340 374h16v16h-16z" fill="#25562e"></path><path d="m357 374h16v16h-16z" fill="#202e37"></path><path d="m374 374h16v16h-16z" fill="#19332d"></path><path d="m391 374h16v16h-16z" fill="#151d28"></path><path d="m408 374h16v16h-16z" fill="#341c27"></path><path d="m425 374h16v16h-16z" fill="#341c27"></path><path d="m442 374h16v16h-16z" fill="#341c27"></path><path d="m459 374h16v16h-16z" fill="#341c27"></path><path d="m476 374h16v16h-16z" fill="#341c27"></path><path d="m493 374h16v16h-16z" fill="#341c27"></path><path d="m510 374h16v16h-16z" fill="#241527"></path><path d="m527 374h16v16h-16z" fill="#341c27"></path><path d="m0 391h16v16h-16z" fill="#341c27"></path><path d="m17 391h16v16h-16z" fill="#341c27"></path><path d="m34 391h16v16h-16z" fill="#241527"></path><path d="m51 391h16v16h-16z" fill="#241527"></path><path d="m68 391h16v16h-16z" fill="#241527"></path><path d="m85 391h16v16h-16z" fill="#341c27"></path><path d="m102 391h16v16h-16z" fill="#4d2b32"></path><path d="m119 391h16v16h-16z" fill="#4d2b32"></path><path d="m136 391h16v16h-16z" fill="#4d2b32"></path><path d="m153 391h16v16h-16z" fill="#341c27"></path><path d="m170 391h16v16h-16z" fill="#241527"></path><path d="m187 391h16v16h-16z" fill="#7a4841"></path><path d="m204 391h16v16h-16z" fill="#4d2b32"></path><path d="m221 391h16v16h-16z" fill="#4d2b32"></path><path d="m238 391h16v16h-16z" fill="#19332d"></path><path d="m255 391h16v16h-16z" fill="#25562e"></path><path d="m272 391h16v16h-16z" fill="#25562e"></path><path d="m289 391h16v16h-16z" fill="#19332d"></path><path d="m306 391h16v16h-16z" fill="#19332d"></path><path d="m323 391h16v16h-16z" fill="#19332d"></path><path d="m340 391h16v16h-16z" fill="#19332d"></path><path d="m357 391h16v16h-16z" fill="#19332d"></path><path d="m374 391h16v16h-16z" fill="#151d28"></path><path d="m391 391h16v16h-16z" fill="#151d28"></path><path d="m408 391h16v16h-16z" fill="#341c27"></path><path d="m425 391h16v16h-16z" fill="#341c27"></path><path d="m442 391h16v16h-16z" fill="#341c27"></path><path d="m459 391h16v16h-16z" fill="#341c27"></path><path d="m476 391h16v16h-16z" fill="#341c27"></path><path d="m493 391h16v16h-16z" fill="#241527"></path><path d="m510 391h16v16h-16z" fill="#341c27"></path><path d="m527 391h16v16h-16z" fill="#341c27"></path><path d="m0 408h16v16h-16z" fill="#241527"></path><path d="m17 408h16v16h-16z" fill="#241527"></path><path d="m34 408h16v16h-16z" fill="#241527"></path><path d="m51 408h16v16h-16z" fill="#241527"></path><path d="m68 408h16v16h-16z" fill="#341c27"></path><path d="m85 408h16v16h-16z" fill="#241527"></path><path d="m102 408h16v16h-16z" fill="#341c27"></path><path d="m119 408h16v16h-16z" fill="#4d2b32"></path><path d="m136 408h16v16h-16z" fill="#4d2b32"></path><path d="m153 408h16v16h-16z" fill="#4d2b32"></path><path d="m170 408h16v16h-16z" fill="#4d2b32"></path><path d="m187 408h16v16h-16z" fill="#7a4841"></path><path d="m204 408h16v16h-16z" fill="#4d2b32"></path><path d="m221 408h16v16h-16z" fill="#4d2b32"></path><path d="m238 408h16v16h-16z" fill="#4d2b32"></path><path d="m255 408h16v16h-16z" fill="#19332d"></path><path d="m272 408h16v16h-16z" fill="#19332d"></path><path d="m289 408h16v16h-16z" fill="#19332d"></path><path d="m306 408h16v16h-16z" fill="#19332d"></path><path d="m323 408h16v16h-16z" fill="#151d28"></path><path d="m340 408h16v16h-16z" fill="#341c27"></path><path d="m357 408h16v16h-16z" fill="#341c27"></path><path d="m374 408h16v16h-16z" fill="#341c27"></path><path d="m391 408h16v16h-16z" fill="#341c27"></path><path d="m408 408h16v16h-16z" fill="#341c27"></path><path d="m425 408h16v16h-16z" fill="#341c27"></path><path d="m442 408h16v16h-16z" fill="#341c27"></path><path d="m459 408h16v16h-16z" fill="#241527"></path><path d="m476 408h16v16h-16z" fill="#341c27"></path><path d="m493 408h16v16h-16z" fill="#341c27"></path><path d="m510 408h16v16h-16z" fill="#241527"></path><path d="m527 408h16v16h-16z" fill="#241527"></path><path d="m34 425h16v16h-16z" fill="#341c27"></path><path d="m51 425h16v16h-16z" fill="#341c27"></path><path d="m68 425h16v16h-16z" fill="#241527"></path><path d="m85 425h16v16h-16z" fill="#341c27"></path><path d="m102 425h16v16h-16z" fill="#4d2b32"></path><path d="m119 425h16v16h-16z" fill="#4d2b32"></path><path d="m136 425h16v16h-16z" fill="#4d2b32"></path><path d="m153 425h16v16h-16z" fill="#4d2b32"></path><path d="m170 425h16v16h-16z" fill="#4d2b32"></path><path d="m187 425h16v16h-16z" fill="#4d2b32"></path><path d="m204 425h16v16h-16z" fill="#4d2b32"></path><path d="m221 425h16v16h-16z" fill="#4d2b32"></path><path d="m238 425h16v16h-16z" fill="#4d2b32"></path><path d="m255 425h16v16h-16z" fill="#4d2b32"></path><path d="m272 425h16v16h-16z" fill="#4d2b32"></path><path d="m289 425h16v16h-16z" fill="#19332d"></path><path d="m306 425h16v16h-16z" fill="#241527"></path><path d="m323 425h16v16h-16z" fill="#341c27"></path><path d="m340 425h16v16h-16z" fill="#341c27"></path><path d="m357 425h16v16h-16z" fill="#341c27"></path><path d="m374 425h16v16h-16z" fill="#341c27"></path><path d="m391 425h16v16h-16z" fill="#341c27"></path><path d="m408 425h16v16h-16z" fill="#241527"></path><path d="m425 425h16v16h-16z" fill="#241527"></path><path d="m442 425h16v16h-16z" fill="#10141f"></path><path d="m459 425h16v16h-16z" fill="#241527"></path><path d="m476 425h16v16h-16z" fill="#241527"></path><path d="m493 425h16v16h-16z" fill="#241527"></path><path d="m68 442h16v16h-16z" fill="#341c27"></path><path d="m85 442h16v16h-16z" fill="#341c27"></path><path d="m102 442h16v16h-16z" fill="#241527"></path><path d="m119 442h16v16h-16z" fill="#4d2b32"></path><path d="m136 442h16v16h-16z" fill="#4d2b32"></path><path d="m153 442h16v16h-16z" fill="#4d2b32"></path><path d="m170 442h16v16h-16z" fill="#4d2b32"></path><path d="m187 442h16v16h-16z" fill="#4d2b32"></path><path d="m204 442h16v16h-16z" fill="#4d2b32"></path><path d="m221 442h16v16h-16z" fill="#4d2b32"></path><path d="m238 442h16v16h-16z" fill="#4d2b32"></path><path d="m255 442h16v16h-16z" fill="#4d2b32"></path><path d="m272 442h16v16h-16z" fill="#19332d"></path><path d="m289 442h16v16h-16z" fill="#341c27"></path><path d="m306 442h16v16h-16z" fill="#241527"></path><path d="m323 442h16v16h-16z" fill="#341c27"></path><path d="m340 442h16v16h-16z" fill="#341c27"></path><path d="m357 442h16v16h-16z" fill="#341c27"></path><path d="m374 442h16v16h-16z" fill="#341c27"></path><path d="m391 442h16v16h-16z" fill="#241527"></path><path d="m408 442h16v16h-16z" fill="#10141f"></path><path d="m425 442h16v16h-16z" fill="#10141f"></path><path d="m442 442h16v16h-16z" fill="#10141f"></path><path d="m102 459h16v16h-16z" fill="#341c27"></path><path d="m119 459h16v16h-16z" fill="#4d2b32"></path><path d="m136 459h16v16h-16z" fill="#4d2b32"></path><path d="m153 459h16v16h-16z" fill="#341c27"></path><path d="m170 459h16v16h-16z" fill="#341c27"></path><path d="m187 459h16v16h-16z" fill="#4d2b32"></path><path d="m204 459h16v16h-16z" fill="#4d2b32"></path><path d="m221 459h16v16h-16z" fill="#4d2b32"></path><path d="m238 459h16v16h-16z" fill="#4d2b32"></path><path d="m255 459h16v16h-16z" fill="#4d2b32"></path><path d="m272 459h16v16h-16z" fill="#341c27"></path><path d="m289 459h16v16h-16z" fill="#341c27"></path><path d="m306 459h16v16h-16z" fill="#341c27"></path><path d="m323 459h16v16h-16z" fill="#341c27"></path><path d="m340 459h16v16h-16z" fill="#341c27"></path><path d="m357 459h16v16h-16z" fill="#241527"></path><path d="m374 459h16v16h-16z" fill="#241527"></path><path d="m391 459h16v16h-16z" fill="#10141f"></path><path d="m408 459h16v16h-16z" fill="#10141f"></path><path d="m136 476h16v16h-16z" fill="#341c27"></path><path d="m153 476h16v16h-16z" fill="#4d2b32"></path><path d="m170 476h16v16h-16z" fill="#4d2b32"></path><path d="m187 476h16v16h-16z" fill="#241527"></path><path d="m204 476h16v16h-16z" fill="#4d2b32"></path><path d="m221 476h16v16h-16z" fill="#4d2b32"></path><path d="m238 476h16v16h-16z" fill="#4d2b32"></path><path d="m255 476h16v16h-16z" fill="#4d2b32"></path><path d="m272 476h16v16h-16z" fill="#341c27"></path><path d="m289 476h16v16h-16z" fill="#241527"></path><path d="m306 476h16v16h-16z" fill="#341c27"></path><path d="m323 476h16v16h-16z" fill="#341c27"></path><path d="m340 476h16v16h-16z" fill="#341c27"></path><path d="m357 476h16v16h-16z" fill="#241527"></path><path d="m374 476h16v16h-16z" fill="#341c27"></path><path d="m391 476h16v16h-16z" fill="#341c27"></path><path d="m170 493h16v16h-16z" fill="#341c27"></path><path d="m187 493h16v16h-16z" fill="#4d2b32"></path><path d="m204 493h16v16h-16z" fill="#241527"></path><path d="m221 493h16v16h-16z" fill="#4d2b32"></path><path d="m238 493h16v16h-16z" fill="#4d2b32"></path><path d="m255 493h16v16h-16z" fill="#341c27"></path><path d="m272 493h16v16h-16z" fill="#10141f"></path><path d="m289 493h16v16h-16z" fill="#241527"></path><path d="m306 493h16v16h-16z" fill="#241527"></path><path d="m323 493h16v16h-16z" fill="#241527"></path><path d="m340 493h16v16h-16z" fill="#241527"></path><path d="m357 493h16v16h-16z" fill="#241527"></path><path d="m374 493h16v16h-16z" fill="#341c27"></path><path d="m204 510h16v16h-16z" fill="#4d2b32"></path><path d="m221 510h16v16h-16z" fill="#4d2b32"></path><path d="m238 510h16v16h-16z" fill="#341c27"></path><path d="m255 510h16v16h-16z" fill="#341c27"></path><path d="m272 510h16v16h-16z" fill="#10141f"></path><path d="m289 510h16v16h-16z" fill="#241527"></path><path d="m306 510h16v16h-16z" fill="#241527"></path><path d="m323 510h16v16h-16z" fill="#241527"></path><path d="m238 527h16v16h-16z" fill="#341c27"></path><path d="m255 527h16v16h-16z" fill="#341c27"></path><path d="m272 527h16v16h-16z" fill="#241527"></path><path d="m289 527h16v16h-16z" fill="#341c27"></path></svg>